HIERARCHY
ROOT joint_Root
{
	OFFSET 0.0 0.0 0.0
	CHANNELS 6 Xposition Yposition Zposition Zrotation Xrotation Yrotation 
	JOINT Hips
	{
		OFFSET -0.726466 93.3139 -2.00062
		CHANNELS 6 Xposition Yposition Zposition Zrotation Xrotation Yrotation 
		JOINT Spine
		{
			OFFSET 15.7357 0.0 0.0
			CHANNELS 6 Xposition Yposition Zposition Zrotation Xrotation Yrotation 
			JOINT Chest
			{
				OFFSET 8.98455 -0.406207 0.0
				CHANNELS 6 Xposition Yposition Zposition Zrotation Xrotation Yrotation 
				JOINT Neck
				{
					OFFSET 16.3773 0.0 0.0
					CHANNELS 6 Xposition Yposition Zposition Zrotation Xrotation Yrotation 
					JOINT Head
					{
						OFFSET 6.45672 0.0 0.0
						CHANNELS 6 Xposition Yposition Zposition Zrotation Xrotation Yrotation 
						End Site
						{
							OFFSET 0.0 0.0 0.0
						}
					}
				}
				JOINT Shoulder_L
				{
					OFFSET 12.9942 -0.242716 4.98039
					CHANNELS 6 Xposition Yposition Zposition Zrotation Xrotation Yrotation 
					JOINT UpperArm_L
					{
						OFFSET 5.34809 0.0 0.0
						CHANNELS 6 Xposition Yposition Zposition Zrotation Xrotation Yrotation 
						JOINT LowerArm_L
						{
							OFFSET 24.3286 1.87007e-05 0.0
							CHANNELS 6 Xposition Yposition Zposition Zrotation Xrotation Yrotation 
							JOINT Hand_L
							{
								OFFSET 22.2916 0.0 0.0
								CHANNELS 6 Xposition Yposition Zposition Zrotation Xrotation Yrotation 
								End Site
								{
									OFFSET 0.0 0.0 0.0
								}
							}
						}
					}
				}
				JOINT Shoulder_R
				{
					OFFSET 12.9945 -0.242716 -4.98039
					CHANNELS 6 Xposition Yposition Zposition Zrotation Xrotation Yrotation 
					JOINT UpperArm_R
					{
						OFFSET -5.34813 0.0 0.0
						CHANNELS 6 Xposition Yposition Zposition Zrotation Xrotation Yrotation 
						JOINT LowerArm_R
						{
							OFFSET -24.3289 0.000322201 0.0
							CHANNELS 6 Xposition Yposition Zposition Zrotation Xrotation Yrotation 
							JOINT Hand_R
							{
								OFFSET -22.2915 -0.000108084 0.0
								CHANNELS 6 Xposition Yposition Zposition Zrotation Xrotation Yrotation 
								End Site
								{
									OFFSET 0.0 0.0 0.0
								}
							}
						}
					}
				}
			}
		}
		JOINT UpperLeg_L
		{
			OFFSET -2.19248 -6.46944 0.0
			CHANNELS 6 Xposition Yposition Zposition Zrotation Xrotation Yrotation 
			JOINT LowerLeg_L
			{
				OFFSET 39.0811 0.0 -1.23785e-05
				CHANNELS 6 Xposition Yposition Zposition Zrotation Xrotation Yrotation 
				JOINT Foot_L
				{
					OFFSET 40.9854 0.0 -1.26872e-05
					CHANNELS 6 Xposition Yposition Zposition Zrotation Xrotation Yrotation 
					JOINT Toes_L
					{
						OFFSET 11.7543 0.0 0.0
						CHANNELS 6 Xposition Yposition Zposition Zrotation Xrotation Yrotation 
						End Site
						{
							OFFSET 0.0 0.0 0.0
						}
					}
				}
			}
		}
		JOINT UpperLeg_R
		{
			OFFSET -2.19251 6.46944 0.0
			CHANNELS 6 Xposition Yposition Zposition Zrotation Xrotation Yrotation 
			JOINT LowerLeg_R
			{
				OFFSET -39.0811 -0.00228153 -0.0401928
				CHANNELS 6 Xposition Yposition Zposition Zrotation Xrotation Yrotation 
				JOINT Foot_R
				{
					OFFSET -40.9854 0.0 0.0
					CHANNELS 6 Xposition Yposition Zposition Zrotation Xrotation Yrotation 
					JOINT Toes_R
					{
						OFFSET -11.7543 0.0 0.0
						CHANNELS 6 Xposition Yposition Zposition Zrotation Xrotation Yrotation 
						End Site
						{
							OFFSET 0.0 0.0 0.0
						}
					}
				}
			}
		}
	}
}
MOTION
Frames:	5
Frame Time:	0.0333333
0.000000 0.000000 0.000000 0.000000 0.000000 -0.000000 -0.712483 92.015800 -1.227480 88.183500 -0.901381 5.179210 15.735700 0.000005 -0.000001 72.733400 87.645400 -72.047800 8.984550 -0.406207 -0.000000 -3.260490 -1.463050 1.329980 16.377300 -0.000001 -0.000001 -3.905630 -2.788400 0.841373 6.456720 -0.000001 -0.000000 -2.102430 -2.781120 -0.002109 12.994200 -0.242716 4.980390 -85.390200 -10.900400 -66.907200 5.348090 -0.000007 -0.000001 -68.621400 -52.696800 -91.935400 24.328600 0.000019 0.000005 7.618540 4.324490 -60.588100 22.291600 -0.000001 0.000005 21.623300 5.603500 -11.554100 12.994500 -0.242716 -4.980390 92.077900 -4.948870 -67.189400 -5.348130 -0.000001 -0.000004 -56.525600 -52.946700 -99.332400 -24.328900 0.000322 -0.000009 3.357990 3.201350 -46.425600 -22.291500 -0.000108 -0.000004 24.997600 5.555990 -8.992380 -2.192480 -6.469440 -0.000000 -168.937000 -17.286400 -1.477620 39.081100 -0.000007 -0.000012 -0.177096 0.433439 22.224300 40.985400 -0.000006 -0.000013 -6.925460 -2.087500 -63.314600 11.754300 -0.000000 0.000003 -0.000088 -0.000926 -16.613200 -2.192510 6.469440 -0.000001 173.392000 20.934100 -179.587000 -39.081100 -0.002282 -0.040193 -0.008180 0.030417 20.710100 -40.985400 0.000008 0.000006 -2.667700 -0.139594 -63.611300 -11.754300 -0.000006 -0.000006 -0.004483 -0.056374 -18.866500
0.000000 0.000000 0.000000 0.000000 0.000000 -0.000000 -0.723199 92.019300 -1.226170 88.170400 -0.842844 5.099370 15.735700 0.000005 -0.000001 73.000400 87.655500 -72.315200 8.984550 -0.406207 -0.000000 -3.273370 -1.436250 1.329840 16.377300 -0.000001 -0.000001 -3.887750 -2.741180 0.862141 6.456720 -0.000001 -0.000000 -2.093850 -2.721760 -0.002623 12.994200 -0.242716 4.980390 -85.393200 -10.885700 -66.893100 5.348090 -0.000007 -0.000001 -68.610600 -52.688700 -91.944800 24.328600 0.000019 0.000005 7.656650 4.368810 -60.462300 22.291600 -0.000001 0.000005 21.510600 5.601400 -11.426600 12.994500 -0.242716 -4.980390 92.087400 -4.966300 -67.167100 -5.348130 -0.000001 -0.000004 -56.857200 -52.920300 -99.543900 -24.328900 0.000322 -0.000009 3.411730 3.254670 -46.408800 -22.291500 -0.000108 -0.000004 24.961800 5.551690 -8.785440 -2.192480 -6.469440 -0.000000 -168.956000 -17.232500 -1.564760 39.081100 -0.000007 -0.000012 -0.174858 0.428297 22.208600 40.985400 -0.000006 -0.000013 -6.927650 -2.084140 -63.306100 11.754300 -0.000000 0.000003 -0.000091 -0.000952 -16.614100 -2.192510 6.469440 -0.000001 173.455000 20.942200 -179.657000 -39.081100 -0.002282 -0.040193 -0.007328 0.028200 20.685600 -40.985400 0.000008 0.000006 -2.673130 -0.237844 -63.604900 -11.754300 -0.000006 -0.000006 -0.004610 -0.057636 -18.917900
0.000000 0.000000 0.000000 0.000000 0.000000 -0.000000 -0.715522 92.020200 -1.225530 88.198500 -0.773678 5.081650 15.735700 0.000005 -0.000001 73.464600 87.648900 -72.787600 8.984550 -0.406207 -0.000000 -3.250110 -1.402700 1.314560 16.377300 -0.000001 -0.000001 -3.825590 -2.696740 0.887226 6.456720 -0.000001 -0.000000 -2.094050 -2.706950 -0.028070 12.994200 -0.242716 4.980390 -85.395600 -10.887100 -66.906600 5.348090 -0.000007 -0.000001 -68.441100 -52.689600 -91.795600 24.328600 0.000019 0.000005 7.545530 4.323790 -60.352700 22.291600 -0.000001 0.000005 21.474000 5.600560 -11.375900 12.994500 -0.242716 -4.980390 92.088500 -4.967500 -67.162000 -5.348130 -0.000001 -0.000004 -56.923700 -52.974000 -99.593200 -24.328900 0.000322 -0.000009 3.307320 3.158350 -46.376300 -22.291500 -0.000108 -0.000004 24.972300 5.552820 -8.840060 -2.192480 -6.469440 -0.000000 -169.001000 -17.224100 -1.597350 39.081100 -0.000007 -0.000012 -0.175254 0.429564 22.194700 40.985400 -0.000006 -0.000013 -6.912400 -2.060530 -63.285800 11.754300 -0.000000 0.000003 -0.000100 -0.001030 -16.617100 -2.192510 6.469440 -0.000001 173.426000 20.996800 -179.673000 -39.081100 -0.002282 -0.040193 -0.006252 0.025314 20.712300 -40.985400 0.000008 0.000006 -2.604580 -0.239767 -63.630400 -11.754300 -0.000006 -0.000006 -0.004569 -0.057237 -18.901700
0.000000 0.000000 0.000000 0.000000 0.000000 -0.000000 -0.717840 92.028500 -1.225990 88.205700 -0.706675 5.038510 15.735700 0.000005 -0.000001 73.572700 87.637900 -72.893800 8.984550 -0.406207 -0.000000 -3.226410 -1.400490 1.318850 16.377300 -0.000001 -0.000001 -3.794050 -2.674100 0.894840 6.456720 -0.000001 -0.000000 -2.071490 -2.648300 -0.027778 12.994200 -0.242716 4.980390 -85.377500 -10.917000 -66.881300 5.348090 -0.000007 -0.000001 -68.492800 -52.689600 -91.764900 24.328600 0.000019 0.000005 7.586900 4.351260 -60.333200 22.291600 -0.000001 0.000005 21.334000 5.600930 -11.398300 12.994500 -0.242716 -4.980390 92.091100 -4.969320 -67.143500 -5.348130 -0.000001 -0.000004 -56.886500 -53.020100 -99.603000 -24.328900 0.000322 -0.000009 3.475360 3.321870 -46.354400 -22.291500 -0.000108 -0.000004 24.963700 5.552270 -8.813940 -2.192480 -6.469440 -0.000000 -169.026000 -17.208300 -1.635230 39.081100 -0.000007 -0.000012 -0.174209 0.428273 22.135200 40.985400 -0.000006 -0.000013 -6.902130 -2.028490 -63.239800 11.754300 -0.000000 0.000003 -0.000104 -0.001062 -16.618300 -2.192510 6.469440 -0.000001 173.438000 21.044300 -179.685000 -39.081100 -0.002282 -0.040193 -0.004629 0.021077 20.664000 -40.985400 0.000008 0.000006 -2.578570 -0.274529 -63.612700 -11.754300 -0.000006 -0.000006 -0.004705 -0.058584 -18.956600
0.000000 0.000000 0.000000 0.000000 0.000000 -0.000000 -0.706716 92.029900 -1.215330 88.219700 -0.636099 4.991790 15.735700 0.000005 -0.000001 73.906000 87.632300 -73.230500 8.984550 -0.406207 -0.000000 -3.208260 -1.376750 1.312690 16.377300 -0.000001 -0.000001 -3.750480 -2.652040 0.901433 6.456720 -0.000001 -0.000000 -2.067060 -2.620810 -0.000407 12.994200 -0.242716 4.980390 -85.367400 -10.934700 -66.869100 5.348090 -0.000007 -0.000001 -68.424100 -52.691400 -91.689500 24.328600 0.000019 0.000005 7.658640 4.385940 -60.372600 22.291600 -0.000001 0.000005 21.396200 5.599310 -11.301300 12.994500 -0.242716 -4.980390 92.085600 -4.948250 -67.110700 -5.348130 -0.000001 -0.000004 -56.706800 -53.123300 -99.500200 -24.328900 0.000322 -0.000009 3.376880 3.228490 -46.345200 -22.291500 -0.000108 -0.000004 24.901600 5.551530 -8.778580 -2.192480 -6.469440 -0.000000 -169.068000 -17.241400 -1.697990 39.081100 -0.000007 -0.000012 -0.173437 0.426335 22.137200 40.985400 -0.000006 -0.000013 -6.869300 -1.951280 -63.230900 11.754300 -0.000000 0.000003 -0.000099 -0.001023 -16.616800 -2.192510 6.469440 -0.000001 173.413000 21.096400 -179.694000 -39.081100 -0.002282 -0.040193 -0.007570 0.028958 20.611000 -40.985400 0.000008 0.000006 -2.742970 -0.292927 -63.583100 -11.754300 -0.000006 -0.000006 -0.004612 -0.057659 -18.918900
